<svg xmlns="http://www.w3.org/2000/svg" viewBox="0 0 16 16" width="16" height="16" shape-rendering="crispEdges"><rect x="2" y="2" width="4" height="1" fill="#6d28d9"/><rect x="10" y="2" width="4" height="1" fill="#0891b2"/><rect x="2" y="3" width="4" height="1" fill="#6d28d9"/><rect x="9" y="3" width="4" height="1" fill="#0891b2"/><rect x="2" y="4" width="4" height="1" fill="#6d28d9"/><rect x="8" y="4" width="4" height="1" fill="#0891b2"/><rect x="2" y="5" width="4" height="1" fill="#6d28d9"/><rect x="7" y="5" width="4" height="1" fill="#0891b2"/><rect x="2" y="6" width="4" height="1" fill="#6d28d9"/><rect x="6" y="6" width="4" height="1" fill="#0891b2"/><rect x="2" y="7" width="6" height="1" fill="#6d28d9"/><rect x="2" y="8" width="6" height="1" fill="#6d28d9"/><rect x="2" y="9" width="4" height="1" fill="#6d28d9"/><rect x="6" y="9" width="4" height="1" fill="#0891b2"/><rect x="2" y="10" width="4" height="1" fill="#6d28d9"/><rect x="7" y="10" width="4" height="1" fill="#0891b2"/><rect x="2" y="11" width="4" height="1" fill="#6d28d9"/><rect x="8" y="11" width="4" height="1" fill="#0891b2"/><rect x="2" y="12" width="4" height="1" fill="#6d28d9"/><rect x="9" y="12" width="4" height="1" fill="#0891b2"/><rect x="2" y="13" width="4" height="1" fill="#6d28d9"/><rect x="10" y="13" width="4" height="1" fill="#0891b2"/></svg>
